%TF.GenerationSoftware,KiCad,Pcbnew,5.1.8*%
%TF.CreationDate,2021-01-19T18:06:27+01:00*%
%TF.ProjectId,hl-alyx-glove,686c2d61-6c79-4782-9d67-6c6f76652e6b,rev?*%
%TF.SameCoordinates,Original*%
%TF.FileFunction,Soldermask,Top*%
%TF.FilePolarity,Negative*%
%FSLAX46Y46*%
G04 Gerber Fmt 4.6, Leading zero omitted, Abs format (unit mm)*
G04 Created by KiCad (PCBNEW 5.1.8) date 2021-01-19 18:06:27*
%MOMM*%
%LPD*%
G01*
G04 APERTURE LIST*
%ADD10O,1.700000X1.700000*%
%ADD11R,1.700000X1.700000*%
%ADD12C,3.200000*%
%ADD13O,1.600000X1.600000*%
%ADD14R,1.600000X1.600000*%
%ADD15R,2.000000X1.100000*%
%ADD16C,1.500000*%
%ADD17C,1.600000*%
%ADD18C,1.800000*%
%ADD19R,1.800000X1.800000*%
G04 APERTURE END LIST*
D10*
%TO.C,J2*%
X87600000Y-73540000D03*
D11*
X87600000Y-71000000D03*
%TD*%
D12*
%TO.C,REF\u002A\u002A*%
X88000000Y-90000000D03*
%TD*%
%TO.C,REF\u002A\u002A*%
X88000000Y-54000000D03*
%TD*%
%TO.C,REF\u002A\u002A*%
X170000000Y-48000000D03*
%TD*%
%TO.C,REF\u002A\u002A*%
X145000000Y-90000000D03*
%TD*%
D13*
%TO.C,U4*%
X155000000Y-57120000D03*
X121980000Y-49500000D03*
X152460000Y-57120000D03*
X124520000Y-49500000D03*
X149920000Y-57120000D03*
X127060000Y-49500000D03*
X147380000Y-57120000D03*
X129600000Y-49500000D03*
X144840000Y-57120000D03*
X132140000Y-49500000D03*
X142300000Y-57120000D03*
X134680000Y-49500000D03*
X139760000Y-57120000D03*
X137220000Y-49500000D03*
X137220000Y-57120000D03*
X139760000Y-49500000D03*
X134680000Y-57120000D03*
X142300000Y-49500000D03*
X132140000Y-57120000D03*
X144840000Y-49500000D03*
X129600000Y-57120000D03*
X147380000Y-49500000D03*
X127060000Y-57120000D03*
X149920000Y-49500000D03*
X124520000Y-57120000D03*
X152460000Y-49500000D03*
X121980000Y-57120000D03*
D14*
X155000000Y-49500000D03*
%TD*%
D15*
%TO.C,D3*%
X165650000Y-68300000D03*
X165650000Y-70000000D03*
X165650000Y-71700000D03*
X160850000Y-71700000D03*
X160850000Y-70000000D03*
X160850000Y-68300000D03*
%TD*%
D16*
%TO.C,LED3*%
X149400001Y-65810001D03*
X134400001Y-65810001D03*
X149400001Y-68310001D03*
X134400001Y-68310001D03*
X149400001Y-70810001D03*
X134400001Y-70810001D03*
X149400001Y-73310001D03*
X134400001Y-73310001D03*
X149400001Y-75810001D03*
X134400001Y-75810001D03*
X149400001Y-78310001D03*
X134400001Y-78310001D03*
X149400001Y-80810001D03*
X134400001Y-80810001D03*
X149400001Y-83310001D03*
X134400001Y-83310001D03*
%TD*%
D17*
%TO.C,C1*%
X142500000Y-60500000D03*
X137500000Y-60500000D03*
%TD*%
D13*
%TO.C,R7*%
X158300000Y-56500000D03*
D17*
X171000000Y-56500000D03*
%TD*%
D13*
%TO.C,R6*%
X107700000Y-59000000D03*
D17*
X95000000Y-59000000D03*
%TD*%
D13*
%TO.C,R5*%
X118700000Y-55000000D03*
D17*
X106000000Y-55000000D03*
%TD*%
D18*
%TO.C,D2*%
X100000000Y-50040000D03*
D19*
X100000000Y-47500000D03*
%TD*%
D18*
%TO.C,D1*%
X110000000Y-50040000D03*
D19*
X110000000Y-47500000D03*
%TD*%
D13*
%TO.C,R4*%
X158300000Y-52500000D03*
D17*
X171000000Y-52500000D03*
%TD*%
D10*
%TO.C,J1*%
X156380000Y-77500000D03*
X158920000Y-77500000D03*
X161460000Y-77500000D03*
D11*
X164000000Y-77500000D03*
%TD*%
D13*
%TO.C,R3*%
X125800000Y-88000000D03*
D17*
X138500000Y-88000000D03*
%TD*%
D13*
%TO.C,R2*%
X109300000Y-88000000D03*
D17*
X122000000Y-88000000D03*
%TD*%
D13*
%TO.C,R1*%
X93300000Y-88000000D03*
D17*
X106000000Y-88000000D03*
%TD*%
D16*
%TO.C,LED1*%
X91991999Y-83310001D03*
X106991999Y-83310001D03*
X91991999Y-80810001D03*
X106991999Y-80810001D03*
X91991999Y-78310001D03*
X106991999Y-78310001D03*
X91991999Y-75810001D03*
X106991999Y-75810001D03*
X91991999Y-73310001D03*
X106991999Y-73310001D03*
X91991999Y-70810001D03*
X106991999Y-70810001D03*
X91991999Y-68310001D03*
X106991999Y-68310001D03*
X91991999Y-65810001D03*
X106991999Y-65810001D03*
%TD*%
%TO.C,LED2*%
X128200001Y-65810001D03*
X113200001Y-65810001D03*
X128200001Y-68310001D03*
X113200001Y-68310001D03*
X128200001Y-70810001D03*
X113200001Y-70810001D03*
X128200001Y-73310001D03*
X113200001Y-73310001D03*
X128200001Y-75810001D03*
X113200001Y-75810001D03*
X128200001Y-78310001D03*
X113200001Y-78310001D03*
X128200001Y-80810001D03*
X113200001Y-80810001D03*
X128200001Y-83310001D03*
X113200001Y-83310001D03*
%TD*%
M02*
