%TF.GenerationSoftware,KiCad,Pcbnew,5.1.9*%
%TF.CreationDate,2021-02-04T18:55:06+01:00*%
%TF.ProjectId,hl-alyx-glove,686c2d61-6c79-4782-9d67-6c6f76652e6b,rev?*%
%TF.SameCoordinates,Original*%
%TF.FileFunction,Soldermask,Top*%
%TF.FilePolarity,Negative*%
%FSLAX46Y46*%
G04 Gerber Fmt 4.6, Leading zero omitted, Abs format (unit mm)*
G04 Created by KiCad (PCBNEW 5.1.9) date 2021-02-04 18:55:06*
%MOMM*%
%LPD*%
G01*
G04 APERTURE LIST*
%ADD10R,2.440000X1.120000*%
%ADD11O,1.700000X1.700000*%
%ADD12R,1.700000X1.700000*%
%ADD13C,1.500000*%
%ADD14C,3.200000*%
%ADD15O,1.600000X1.600000*%
%ADD16R,1.600000X1.600000*%
%ADD17R,2.000000X1.100000*%
%ADD18R,1.800000X1.800000*%
%ADD19C,1.800000*%
%ADD20C,1.600000*%
G04 APERTURE END LIST*
D10*
%TO.C,SW2*%
X104705000Y-55400000D03*
X112495000Y-55400000D03*
%TD*%
%TO.C,SW1*%
X93305000Y-55400000D03*
X101095000Y-55400000D03*
%TD*%
%TO.C,R13*%
G36*
G01*
X163150001Y-58000000D02*
X162249999Y-58000000D01*
G75*
G02*
X162000000Y-57750001I0J249999D01*
G01*
X162000000Y-57049999D01*
G75*
G02*
X162249999Y-56800000I249999J0D01*
G01*
X163150001Y-56800000D01*
G75*
G02*
X163400000Y-57049999I0J-249999D01*
G01*
X163400000Y-57750001D01*
G75*
G02*
X163150001Y-58000000I-249999J0D01*
G01*
G37*
G36*
G01*
X163150001Y-60000000D02*
X162249999Y-60000000D01*
G75*
G02*
X162000000Y-59750001I0J249999D01*
G01*
X162000000Y-59049999D01*
G75*
G02*
X162249999Y-58800000I249999J0D01*
G01*
X163150001Y-58800000D01*
G75*
G02*
X163400000Y-59049999I0J-249999D01*
G01*
X163400000Y-59750001D01*
G75*
G02*
X163150001Y-60000000I-249999J0D01*
G01*
G37*
%TD*%
%TO.C,R12*%
G36*
G01*
X165750001Y-58000000D02*
X164849999Y-58000000D01*
G75*
G02*
X164600000Y-57750001I0J249999D01*
G01*
X164600000Y-57049999D01*
G75*
G02*
X164849999Y-56800000I249999J0D01*
G01*
X165750001Y-56800000D01*
G75*
G02*
X166000000Y-57049999I0J-249999D01*
G01*
X166000000Y-57750001D01*
G75*
G02*
X165750001Y-58000000I-249999J0D01*
G01*
G37*
G36*
G01*
X165750001Y-60000000D02*
X164849999Y-60000000D01*
G75*
G02*
X164600000Y-59750001I0J249999D01*
G01*
X164600000Y-59049999D01*
G75*
G02*
X164849999Y-58800000I249999J0D01*
G01*
X165750001Y-58800000D01*
G75*
G02*
X166000000Y-59049999I0J-249999D01*
G01*
X166000000Y-59750001D01*
G75*
G02*
X165750001Y-60000000I-249999J0D01*
G01*
G37*
%TD*%
%TO.C,R11*%
G36*
G01*
X158150000Y-51099999D02*
X158150000Y-52000001D01*
G75*
G02*
X157900001Y-52250000I-249999J0D01*
G01*
X157199999Y-52250000D01*
G75*
G02*
X156950000Y-52000001I0J249999D01*
G01*
X156950000Y-51099999D01*
G75*
G02*
X157199999Y-50850000I249999J0D01*
G01*
X157900001Y-50850000D01*
G75*
G02*
X158150000Y-51099999I0J-249999D01*
G01*
G37*
G36*
G01*
X160150000Y-51099999D02*
X160150000Y-52000001D01*
G75*
G02*
X159900001Y-52250000I-249999J0D01*
G01*
X159199999Y-52250000D01*
G75*
G02*
X158950000Y-52000001I0J249999D01*
G01*
X158950000Y-51099999D01*
G75*
G02*
X159199999Y-50850000I249999J0D01*
G01*
X159900001Y-50850000D01*
G75*
G02*
X160150000Y-51099999I0J-249999D01*
G01*
G37*
%TD*%
D11*
%TO.C,J4*%
X157020000Y-49400000D03*
X159560000Y-49400000D03*
D12*
X162100000Y-49400000D03*
%TD*%
D13*
%TO.C,LED2*%
X128300001Y-61510001D03*
X113300001Y-61510001D03*
X128300001Y-64010001D03*
X113300001Y-64010001D03*
X128300001Y-66510001D03*
X113300001Y-66510001D03*
X128300001Y-69010001D03*
X113300001Y-69010001D03*
X128300001Y-71510001D03*
X113300001Y-71510001D03*
X128300001Y-74010001D03*
X113300001Y-74010001D03*
X128300001Y-76510001D03*
X113300001Y-76510001D03*
X128300001Y-79010001D03*
X113300001Y-79010001D03*
%TD*%
%TO.C,R7*%
G36*
G01*
X168200001Y-58000000D02*
X167299999Y-58000000D01*
G75*
G02*
X167050000Y-57750001I0J249999D01*
G01*
X167050000Y-57049999D01*
G75*
G02*
X167299999Y-56800000I249999J0D01*
G01*
X168200001Y-56800000D01*
G75*
G02*
X168450000Y-57049999I0J-249999D01*
G01*
X168450000Y-57750001D01*
G75*
G02*
X168200001Y-58000000I-249999J0D01*
G01*
G37*
G36*
G01*
X168200001Y-60000000D02*
X167299999Y-60000000D01*
G75*
G02*
X167050000Y-59750001I0J249999D01*
G01*
X167050000Y-59049999D01*
G75*
G02*
X167299999Y-58800000I249999J0D01*
G01*
X168200001Y-58800000D01*
G75*
G02*
X168450000Y-59049999I0J-249999D01*
G01*
X168450000Y-59750001D01*
G75*
G02*
X168200001Y-60000000I-249999J0D01*
G01*
G37*
%TD*%
%TO.C,R10*%
G36*
G01*
X153949999Y-50800000D02*
X154850001Y-50800000D01*
G75*
G02*
X155100000Y-51049999I0J-249999D01*
G01*
X155100000Y-51750001D01*
G75*
G02*
X154850001Y-52000000I-249999J0D01*
G01*
X153949999Y-52000000D01*
G75*
G02*
X153700000Y-51750001I0J249999D01*
G01*
X153700000Y-51049999D01*
G75*
G02*
X153949999Y-50800000I249999J0D01*
G01*
G37*
G36*
G01*
X153949999Y-48800000D02*
X154850001Y-48800000D01*
G75*
G02*
X155100000Y-49049999I0J-249999D01*
G01*
X155100000Y-49750001D01*
G75*
G02*
X154850001Y-50000000I-249999J0D01*
G01*
X153949999Y-50000000D01*
G75*
G02*
X153700000Y-49750001I0J249999D01*
G01*
X153700000Y-49049999D01*
G75*
G02*
X153949999Y-48800000I249999J0D01*
G01*
G37*
%TD*%
D14*
%TO.C,H4*%
X89100000Y-83000000D03*
%TD*%
%TO.C,H3*%
X146200000Y-83000000D03*
%TD*%
%TO.C,H2*%
X89100000Y-55400000D03*
%TD*%
%TO.C,H1*%
X168700000Y-47800000D03*
%TD*%
D11*
%TO.C,J3*%
X157400000Y-54240000D03*
X157400000Y-56780000D03*
X157400000Y-59320000D03*
X157400000Y-61860000D03*
D12*
X157400000Y-64400000D03*
%TD*%
D11*
%TO.C,J2*%
X91260000Y-49400000D03*
D12*
X93800000Y-49400000D03*
%TD*%
D15*
%TO.C,U4*%
X150600000Y-55370000D03*
X117580000Y-47750000D03*
X148060000Y-55370000D03*
X120120000Y-47750000D03*
X145520000Y-55370000D03*
X122660000Y-47750000D03*
X142980000Y-55370000D03*
X125200000Y-47750000D03*
X140440000Y-55370000D03*
X127740000Y-47750000D03*
X137900000Y-55370000D03*
X130280000Y-47750000D03*
X135360000Y-55370000D03*
X132820000Y-47750000D03*
X132820000Y-55370000D03*
X135360000Y-47750000D03*
X130280000Y-55370000D03*
X137900000Y-47750000D03*
X127740000Y-55370000D03*
X140440000Y-47750000D03*
X125200000Y-55370000D03*
X142980000Y-47750000D03*
X122660000Y-55370000D03*
X145520000Y-47750000D03*
X120120000Y-55370000D03*
X148060000Y-47750000D03*
X117580000Y-55370000D03*
D16*
X150600000Y-47750000D03*
%TD*%
D17*
%TO.C,D3*%
X167000000Y-62300000D03*
X167000000Y-64000000D03*
X167000000Y-65700000D03*
X162200000Y-65700000D03*
X162200000Y-64000000D03*
X162200000Y-62300000D03*
%TD*%
D13*
%TO.C,LED3*%
X149500001Y-61510001D03*
X134500001Y-61510001D03*
X149500001Y-64010001D03*
X134500001Y-64010001D03*
X149500001Y-66510001D03*
X134500001Y-66510001D03*
X149500001Y-69010001D03*
X134500001Y-69010001D03*
X149500001Y-71510001D03*
X134500001Y-71510001D03*
X149500001Y-74010001D03*
X134500001Y-74010001D03*
X149500001Y-76510001D03*
X134500001Y-76510001D03*
X149500001Y-79010001D03*
X134500001Y-79010001D03*
%TD*%
D18*
%TO.C,D2*%
X99750000Y-51000000D03*
D19*
X99750000Y-48460000D03*
%TD*%
%TO.C,D1*%
X107000000Y-48460000D03*
D18*
X107000000Y-51000000D03*
%TD*%
D11*
%TO.C,J1*%
X157430000Y-68400000D03*
X159970000Y-68400000D03*
X162510000Y-68400000D03*
D12*
X165050000Y-68400000D03*
%TD*%
D15*
%TO.C,R3*%
X125900000Y-83000000D03*
D20*
X138600000Y-83000000D03*
%TD*%
D15*
%TO.C,R2*%
X109500000Y-83000000D03*
D20*
X122200000Y-83000000D03*
%TD*%
D15*
%TO.C,R1*%
X105300000Y-83000000D03*
D20*
X92600000Y-83000000D03*
%TD*%
D13*
%TO.C,LED1*%
X92091999Y-79010001D03*
X107091999Y-79010001D03*
X92091999Y-76510001D03*
X107091999Y-76510001D03*
X92091999Y-74010001D03*
X107091999Y-74010001D03*
X92091999Y-71510001D03*
X107091999Y-71510001D03*
X92091999Y-69010001D03*
X107091999Y-69010001D03*
X92091999Y-66510001D03*
X107091999Y-66510001D03*
X92091999Y-64010001D03*
X107091999Y-64010001D03*
X92091999Y-61510001D03*
X107091999Y-61510001D03*
%TD*%
M02*
