M48
; DRILL file {KiCad 5.1.9} date Thu Feb  4 18:55:41 2021
; FORMAT={-:-/ absolute / inch / decimal}
; #@! TF.CreationDate,2021-02-04T18:55:41+01:00
; #@! TF.GenerationSoftware,Kicad,Pcbnew,5.1.9
FMAT,2
INCH
T1C0.0157
T2C0.0315
T3C0.0354
T4C0.0394
T5C0.1260
%
G90
G05
T1
X3.7067Y-2.4409
X3.813Y-2.6457
X3.813Y-2.8917
X3.815Y-3.0157
X3.815Y-3.0669
X3.8476Y-2.7901
X3.8713Y-2.5923
X3.872Y-3.0173
X3.9075Y-2.7705
X3.9137Y-2.6883
X3.9213Y-2.5423
X3.936Y-2.816
X3.9665Y-2.9803
X3.9713Y-2.8652
X3.9963Y-2.7423
X4.0157Y-3.1102
X4.0213Y-2.9709
X4.0269Y-2.7908
X4.1535Y-3.1988
X4.2677Y-2.6673
X4.3051Y-2.3071
X4.3307Y-2.9724
X4.3332Y-2.4188
X4.4094Y-3.061
X4.5079Y-2.0827
X4.5197Y-2.1811
X4.5433Y-2.4409
X4.5768Y-2.3524
X4.5866Y-3.1791
X4.6496Y-2.6457
X4.6496Y-2.8917
X4.6496Y-3.0157
X4.6822Y-2.7901
X4.7059Y-2.5923
X4.7067Y-3.0173
X4.7343Y-2.4508
X4.7421Y-2.7705
X4.7484Y-2.6883
X4.7559Y-2.5423
X4.7707Y-2.816
X4.8031Y-2.9724
X4.8059Y-2.8652
X4.8309Y-2.7423
X4.8406Y-2.3484
X4.8559Y-2.9709
X4.8615Y-2.7908
X4.8819Y-3.1102
X5.0787Y-3.2677
X5.1024Y-2.6673
X5.1378Y-2.4803
X5.1486Y-2.7677
X5.1654Y-2.3681
X5.2244Y-3.0591
X5.4843Y-3.0157
X5.4862Y-2.6457
X5.4862Y-2.8917
X5.5168Y-2.7881
X5.5406Y-2.5904
X5.5532Y-3.012
X5.5768Y-2.7686
X5.583Y-2.6864
X5.5906Y-2.5404
X5.6053Y-2.814
X5.6398Y-2.9724
X5.6406Y-2.8632
X5.6496Y-2.4803
X5.6656Y-2.7404
X5.6906Y-2.9689
X5.6962Y-2.7889
X5.7795Y-2.4134
X5.937Y-2.6673
X5.9744Y-2.4902
T2
X3.6257Y-2.4217
X3.6257Y-2.5201
X3.6257Y-2.6185
X3.6257Y-2.7169
X3.6257Y-2.8154
X3.6257Y-2.9138
X3.6257Y-3.0122
X3.6257Y-3.1106
X3.6457Y-3.2677
X4.1457Y-3.2677
X4.2162Y-2.4217
X4.2162Y-2.5201
X4.2162Y-2.6185
X4.2162Y-2.7169
X4.2162Y-2.8154
X4.2162Y-2.9138
X4.2162Y-3.0122
X4.2162Y-3.1106
X4.311Y-3.2677
X4.4606Y-2.4217
X4.4606Y-2.5201
X4.4606Y-2.6185
X4.4606Y-2.7169
X4.4606Y-2.8154
X4.4606Y-2.9138
X4.4606Y-3.0122
X4.4606Y-3.1106
X4.6291Y-1.8799
X4.6291Y-2.1799
X4.7291Y-1.8799
X4.7291Y-2.1799
X4.811Y-3.2677
X4.8291Y-1.8799
X4.8291Y-2.1799
X4.9291Y-1.8799
X4.9291Y-2.1799
X4.9567Y-3.2677
X5.0291Y-1.8799
X5.0291Y-2.1799
X5.0512Y-2.4217
X5.0512Y-2.5201
X5.0512Y-2.6185
X5.0512Y-2.7169
X5.0512Y-2.8154
X5.0512Y-2.9138
X5.0512Y-3.0122
X5.0512Y-3.1106
X5.1291Y-1.8799
X5.1291Y-2.1799
X5.2291Y-1.8799
X5.2291Y-2.1799
X5.2953Y-2.4217
X5.2953Y-2.5201
X5.2953Y-2.6185
X5.2953Y-2.7169
X5.2953Y-2.8154
X5.2953Y-2.9138
X5.2953Y-3.0122
X5.2953Y-3.1106
X5.3291Y-1.8799
X5.3291Y-2.1799
X5.4291Y-1.8799
X5.4291Y-2.1799
X5.4567Y-3.2677
X5.5291Y-1.8799
X5.5291Y-2.1799
X5.6291Y-1.8799
X5.6291Y-2.1799
X5.7291Y-1.8799
X5.7291Y-2.1799
X5.8291Y-1.8799
X5.8291Y-2.1799
X5.8858Y-2.4217
X5.8858Y-2.5201
X5.8858Y-2.6185
X5.8858Y-2.7169
X5.8858Y-2.8154
X5.8858Y-2.9138
X5.8858Y-3.0122
X5.8858Y-3.1106
X5.9291Y-1.8799
X5.9291Y-2.1799
T3
X3.9272Y-1.9079
X3.9272Y-2.0079
X4.2126Y-1.9079
X4.2126Y-2.0079
T4
X3.5929Y-1.9449
X3.6929Y-1.9449
X6.1819Y-1.9449
X6.1969Y-2.1354
X6.1969Y-2.2354
X6.1969Y-2.3354
X6.1969Y-2.4354
X6.1969Y-2.5354
X6.198Y-2.6929
X6.2819Y-1.9449
X6.298Y-2.6929
X6.3819Y-1.9449
X6.398Y-2.6929
X6.498Y-2.6929
T5
X3.5079Y-2.1811
X3.5079Y-3.2677
X5.7559Y-3.2677
X6.6417Y-1.8819
T0
M30
