M48
; DRILL file {KiCad 5.1.8} date Tue Jan 19 18:06:36 2021
; FORMAT={-:-/ absolute / inch / decimal}
; #@! TF.CreationDate,2021-01-19T18:06:36+01:00
; #@! TF.GenerationSoftware,Kicad,Pcbnew,5.1.8
FMAT,2
INCH
T1C0.0157
T2C0.0315
T3C0.0354
T4C0.0394
T5C0.1260
%
G90
G05
T1
X3.8091Y-2.815
X3.8091Y-3.061
X3.811Y-3.185
X3.8436Y-2.9594
X3.8673Y-2.7616
X3.8681Y-3.1866
X3.9035Y-2.9398
X3.9098Y-2.8576
X3.9173Y-2.7116
X3.9321Y-2.9853
X3.9673Y-3.0344
X3.9764Y-2.5
X3.9923Y-2.9116
X4.0173Y-3.1402
X4.0229Y-2.9601
X4.0945Y-3.2894
X4.3504Y-2.5
X4.6457Y-2.815
X4.6457Y-3.061
X4.6457Y-3.185
X4.6783Y-2.9594
X4.702Y-2.7616
X4.7028Y-3.1866
X4.7382Y-2.9398
X4.7444Y-2.8576
X4.752Y-2.7116
X4.7667Y-2.9853
X4.802Y-3.0344
X4.827Y-2.9116
X4.852Y-3.1402
X4.8576Y-2.9601
X4.9291Y-3.2894
X5.1772Y-2.5787
X5.4803Y-3.185
X5.4823Y-2.815
X5.4823Y-3.061
X5.5129Y-2.9574
X5.5366Y-2.7596
X5.5492Y-3.1813
X5.5728Y-2.9378
X5.5791Y-2.8557
X5.5866Y-2.7096
X5.6014Y-2.9833
X5.6366Y-3.0325
X5.6616Y-2.9096
X5.6866Y-3.1382
X5.6922Y-2.9582
X5.7638Y-3.2874
T2
X5.4134Y-2.3819
X5.6102Y-2.3819
X6.2323Y-2.0669
X6.7323Y-2.0669
X4.1732Y-2.1654
X4.6732Y-2.1654
X4.9528Y-3.4646
X5.4528Y-3.4646
X3.7402Y-2.3228
X4.2402Y-2.3228
X3.6217Y-2.5909
X3.6217Y-2.6894
X3.6217Y-2.7878
X3.6217Y-2.8862
X3.6217Y-2.9846
X3.6217Y-3.0831
X3.6217Y-3.1815
X3.6217Y-3.2799
X4.2123Y-2.5909
X4.2123Y-2.6894
X4.2123Y-2.7878
X4.2123Y-2.8862
X4.2123Y-2.9846
X4.2123Y-3.0831
X4.2123Y-3.1815
X4.2123Y-3.2799
X4.4567Y-2.5909
X4.4567Y-2.6894
X4.4567Y-2.7878
X4.4567Y-2.8862
X4.4567Y-2.9846
X4.4567Y-3.0831
X4.4567Y-3.1815
X4.4567Y-3.2799
X5.0472Y-2.5909
X5.0472Y-2.6894
X5.0472Y-2.7878
X5.0472Y-2.8862
X5.0472Y-2.9846
X5.0472Y-3.0831
X5.0472Y-3.1815
X5.0472Y-3.2799
X4.3031Y-3.4646
X4.8031Y-3.4646
X4.8024Y-1.9488
X4.8024Y-2.2488
X4.9024Y-1.9488
X4.9024Y-2.2488
X5.0024Y-1.9488
X5.0024Y-2.2488
X5.1024Y-1.9488
X5.1024Y-2.2488
X5.2024Y-1.9488
X5.2024Y-2.2488
X5.3024Y-1.9488
X5.3024Y-2.2488
X5.4024Y-1.9488
X5.4024Y-2.2488
X5.5024Y-1.9488
X5.5024Y-2.2488
X5.6024Y-1.9488
X5.6024Y-2.2488
X5.7024Y-1.9488
X5.7024Y-2.2488
X5.8024Y-1.9488
X5.8024Y-2.2488
X5.9024Y-1.9488
X5.9024Y-2.2488
X6.0024Y-1.9488
X6.0024Y-2.2488
X6.1024Y-1.9488
X6.1024Y-2.2488
X3.6732Y-3.4646
X4.1732Y-3.4646
X6.2323Y-2.2244
X6.7323Y-2.2244
X5.2913Y-2.5909
X5.2913Y-2.6894
X5.2913Y-2.7878
X5.2913Y-2.8862
X5.2913Y-2.9846
X5.2913Y-3.0831
X5.2913Y-3.1815
X5.2913Y-3.2799
X5.8819Y-2.5909
X5.8819Y-2.6894
X5.8819Y-2.7878
X5.8819Y-2.8862
X5.8819Y-2.9846
X5.8819Y-3.0831
X5.8819Y-3.1815
X5.8819Y-3.2799
T3
X4.3307Y-1.8701
X4.3307Y-1.9701
X3.937Y-1.8701
X3.937Y-1.9701
T4
X6.1567Y-3.0512
X6.2567Y-3.0512
X6.3567Y-3.0512
X6.4567Y-3.0512
X3.4488Y-2.7953
X3.4488Y-2.8953
T5
X3.4646Y-2.126
X6.6929Y-1.8898
X5.7087Y-3.5433
X3.4646Y-3.5433
T0
M30
