%TF.GenerationSoftware,KiCad,Pcbnew,5.1.8*%
%TF.CreationDate,2021-01-19T18:06:27+01:00*%
%TF.ProjectId,hl-alyx-glove,686c2d61-6c79-4782-9d67-6c6f76652e6b,rev?*%
%TF.SameCoordinates,Original*%
%TF.FileFunction,Legend,Top*%
%TF.FilePolarity,Positive*%
%FSLAX46Y46*%
G04 Gerber Fmt 4.6, Leading zero omitted, Abs format (unit mm)*
G04 Created by KiCad (PCBNEW 5.1.8) date 2021-01-19 18:06:27*
%MOMM*%
%LPD*%
G01*
G04 APERTURE LIST*
%ADD10C,0.150000*%
%ADD11C,0.120000*%
G04 APERTURE END LIST*
D10*
X154047619Y-86829761D02*
X154047619Y-84829761D01*
X154047619Y-85782142D02*
X155190476Y-85782142D01*
X155190476Y-86829761D02*
X155190476Y-84829761D01*
X157095238Y-86829761D02*
X156142857Y-86829761D01*
X156142857Y-84829761D01*
X157761904Y-86639285D02*
X157857142Y-86734523D01*
X157761904Y-86829761D01*
X157666666Y-86734523D01*
X157761904Y-86639285D01*
X157761904Y-86829761D01*
X157761904Y-85591666D02*
X157857142Y-85686904D01*
X157761904Y-85782142D01*
X157666666Y-85686904D01*
X157761904Y-85591666D01*
X157761904Y-85782142D01*
X158619047Y-86258333D02*
X159571428Y-86258333D01*
X158428571Y-86829761D02*
X159095238Y-84829761D01*
X159761904Y-86829761D01*
X163000000Y-84925000D02*
X162809523Y-84829761D01*
X162523809Y-84829761D01*
X162238095Y-84925000D01*
X162047619Y-85115476D01*
X161952380Y-85305952D01*
X161857142Y-85686904D01*
X161857142Y-85972619D01*
X161952380Y-86353571D01*
X162047619Y-86544047D01*
X162238095Y-86734523D01*
X162523809Y-86829761D01*
X162714285Y-86829761D01*
X163000000Y-86734523D01*
X163095238Y-86639285D01*
X163095238Y-85972619D01*
X162714285Y-85972619D01*
X168142857Y-86829761D02*
X167476190Y-85877380D01*
X167000000Y-86829761D02*
X167000000Y-84829761D01*
X167761904Y-84829761D01*
X167952380Y-84925000D01*
X168047619Y-85020238D01*
X168142857Y-85210714D01*
X168142857Y-85496428D01*
X168047619Y-85686904D01*
X167952380Y-85782142D01*
X167761904Y-85877380D01*
X167000000Y-85877380D01*
X170047619Y-86829761D02*
X168904761Y-86829761D01*
X169476190Y-86829761D02*
X169476190Y-84829761D01*
X169285714Y-85115476D01*
X169095238Y-85305952D01*
X168904761Y-85401190D01*
X155047619Y-89789285D02*
X154952380Y-89884523D01*
X154666666Y-89979761D01*
X154476190Y-89979761D01*
X154190476Y-89884523D01*
X154000000Y-89694047D01*
X153904761Y-89503571D01*
X153809523Y-89122619D01*
X153809523Y-88836904D01*
X153904761Y-88455952D01*
X154000000Y-88265476D01*
X154190476Y-88075000D01*
X154476190Y-87979761D01*
X154666666Y-87979761D01*
X154952380Y-88075000D01*
X155047619Y-88170238D01*
X155904761Y-89979761D02*
X155904761Y-87979761D01*
X155904761Y-88932142D02*
X157047619Y-88932142D01*
X157047619Y-89979761D02*
X157047619Y-87979761D01*
X159142857Y-89979761D02*
X158476190Y-89027380D01*
X158000000Y-89979761D02*
X158000000Y-87979761D01*
X158761904Y-87979761D01*
X158952380Y-88075000D01*
X159047619Y-88170238D01*
X159142857Y-88360714D01*
X159142857Y-88646428D01*
X159047619Y-88836904D01*
X158952380Y-88932142D01*
X158761904Y-89027380D01*
X158000000Y-89027380D01*
X159809523Y-87979761D02*
X161142857Y-87979761D01*
X159809523Y-89979761D01*
X161142857Y-89979761D01*
X163333333Y-88170238D02*
X163428571Y-88075000D01*
X163619047Y-87979761D01*
X164095238Y-87979761D01*
X164285714Y-88075000D01*
X164380952Y-88170238D01*
X164476190Y-88360714D01*
X164476190Y-88551190D01*
X164380952Y-88836904D01*
X163238095Y-89979761D01*
X164476190Y-89979761D01*
X165714285Y-87979761D02*
X165904761Y-87979761D01*
X166095238Y-88075000D01*
X166190476Y-88170238D01*
X166285714Y-88360714D01*
X166380952Y-88741666D01*
X166380952Y-89217857D01*
X166285714Y-89598809D01*
X166190476Y-89789285D01*
X166095238Y-89884523D01*
X165904761Y-89979761D01*
X165714285Y-89979761D01*
X165523809Y-89884523D01*
X165428571Y-89789285D01*
X165333333Y-89598809D01*
X165238095Y-89217857D01*
X165238095Y-88741666D01*
X165333333Y-88360714D01*
X165428571Y-88170238D01*
X165523809Y-88075000D01*
X165714285Y-87979761D01*
X167142857Y-88170238D02*
X167238095Y-88075000D01*
X167428571Y-87979761D01*
X167904761Y-87979761D01*
X168095238Y-88075000D01*
X168190476Y-88170238D01*
X168285714Y-88360714D01*
X168285714Y-88551190D01*
X168190476Y-88836904D01*
X167047619Y-89979761D01*
X168285714Y-89979761D01*
X170190476Y-89979761D02*
X169047619Y-89979761D01*
X169619047Y-89979761D02*
X169619047Y-87979761D01*
X169428571Y-88265476D01*
X169238095Y-88455952D01*
X169047619Y-88551190D01*
D11*
X174000000Y-81000000D02*
X173000000Y-81000000D01*
X174000000Y-59000000D02*
X174000000Y-81000000D01*
X173000000Y-59000000D02*
X174000000Y-59000000D01*
X153000000Y-59000000D02*
X153000000Y-61000000D01*
X173000000Y-59000000D02*
X153000000Y-59000000D01*
X153000000Y-81000000D02*
X173000000Y-81000000D01*
X153000000Y-61000000D02*
X153000000Y-81000000D01*
%TO.C,U4*%
X156330000Y-52310000D02*
X156330000Y-50660000D01*
X156330000Y-50660000D02*
X120650000Y-50660000D01*
X120650000Y-50660000D02*
X120650000Y-55960000D01*
X120650000Y-55960000D02*
X156330000Y-55960000D01*
X156330000Y-55960000D02*
X156330000Y-54310000D01*
X156330000Y-54310000D02*
G75*
G02*
X156330000Y-52310000I0J1000000D01*
G01*
%TO.C,D3*%
X159650000Y-67300000D02*
X165750000Y-67300000D01*
X159650000Y-68400000D02*
X159650000Y-67300000D01*
X165750000Y-72700000D02*
X160750000Y-72700000D01*
%TO.C,LED3*%
X131900001Y-64560001D02*
X133150001Y-64560001D01*
X131900001Y-84560001D02*
X131900001Y-64560001D01*
X151900001Y-84560001D02*
X131900001Y-84560001D01*
X151900001Y-64560001D02*
X151900001Y-84560001D01*
X150650001Y-64560001D02*
X151900001Y-64560001D01*
X138983335Y-64560001D02*
X133150001Y-64560001D01*
X138983335Y-64920001D02*
X138983335Y-64560001D01*
X144816667Y-64920001D02*
X138983335Y-64920001D01*
X144816667Y-64560001D02*
X144816667Y-64920001D01*
X150650001Y-64560001D02*
X144816667Y-64560001D01*
%TO.C,C1*%
X143120000Y-61425000D02*
X143120000Y-61870000D01*
X143120000Y-59130000D02*
X143120000Y-59575000D01*
X136880000Y-61425000D02*
X136880000Y-61870000D01*
X136880000Y-59130000D02*
X136880000Y-59575000D01*
X136880000Y-61870000D02*
X143120000Y-61870000D01*
X136880000Y-59130000D02*
X143120000Y-59130000D01*
%TO.C,R7*%
X169270000Y-58220000D02*
X169270000Y-54780000D01*
X169270000Y-54780000D02*
X160030000Y-54780000D01*
X160030000Y-54780000D02*
X160030000Y-58220000D01*
X160030000Y-58220000D02*
X169270000Y-58220000D01*
X169960000Y-56500000D02*
X169270000Y-56500000D01*
X159340000Y-56500000D02*
X160030000Y-56500000D01*
%TO.C,R6*%
X96730000Y-57280000D02*
X96730000Y-60720000D01*
X96730000Y-60720000D02*
X105970000Y-60720000D01*
X105970000Y-60720000D02*
X105970000Y-57280000D01*
X105970000Y-57280000D02*
X96730000Y-57280000D01*
X96040000Y-59000000D02*
X96730000Y-59000000D01*
X106660000Y-59000000D02*
X105970000Y-59000000D01*
%TO.C,R5*%
X107730000Y-53280000D02*
X107730000Y-56720000D01*
X107730000Y-56720000D02*
X116970000Y-56720000D01*
X116970000Y-56720000D02*
X116970000Y-53280000D01*
X116970000Y-53280000D02*
X107730000Y-53280000D01*
X107040000Y-55000000D02*
X107730000Y-55000000D01*
X117660000Y-55000000D02*
X116970000Y-55000000D01*
%TO.C,D2*%
X102500000Y-48770000D02*
G75*
G03*
X102500000Y-48770000I-2500000J0D01*
G01*
X101545000Y-46210000D02*
X98455000Y-46210000D01*
X100000462Y-51760000D02*
G75*
G02*
X98455170Y-46210000I-462J2990000D01*
G01*
X99999538Y-51760000D02*
G75*
G03*
X101544830Y-46210000I462J2990000D01*
G01*
%TO.C,D1*%
X112500000Y-48770000D02*
G75*
G03*
X112500000Y-48770000I-2500000J0D01*
G01*
X111545000Y-46210000D02*
X108455000Y-46210000D01*
X110000462Y-51760000D02*
G75*
G02*
X108455170Y-46210000I-462J2990000D01*
G01*
X109999538Y-51760000D02*
G75*
G03*
X111544830Y-46210000I462J2990000D01*
G01*
%TO.C,R4*%
X169270000Y-54220000D02*
X169270000Y-50780000D01*
X169270000Y-50780000D02*
X160030000Y-50780000D01*
X160030000Y-50780000D02*
X160030000Y-54220000D01*
X160030000Y-54220000D02*
X169270000Y-54220000D01*
X169960000Y-52500000D02*
X169270000Y-52500000D01*
X159340000Y-52500000D02*
X160030000Y-52500000D01*
%TO.C,R3*%
X136770000Y-89720000D02*
X136770000Y-86280000D01*
X136770000Y-86280000D02*
X127530000Y-86280000D01*
X127530000Y-86280000D02*
X127530000Y-89720000D01*
X127530000Y-89720000D02*
X136770000Y-89720000D01*
X137460000Y-88000000D02*
X136770000Y-88000000D01*
X126840000Y-88000000D02*
X127530000Y-88000000D01*
%TO.C,R2*%
X120270000Y-89720000D02*
X120270000Y-86280000D01*
X120270000Y-86280000D02*
X111030000Y-86280000D01*
X111030000Y-86280000D02*
X111030000Y-89720000D01*
X111030000Y-89720000D02*
X120270000Y-89720000D01*
X120960000Y-88000000D02*
X120270000Y-88000000D01*
X110340000Y-88000000D02*
X111030000Y-88000000D01*
%TO.C,R1*%
X104270000Y-89720000D02*
X104270000Y-86280000D01*
X104270000Y-86280000D02*
X95030000Y-86280000D01*
X95030000Y-86280000D02*
X95030000Y-89720000D01*
X95030000Y-89720000D02*
X104270000Y-89720000D01*
X104960000Y-88000000D02*
X104270000Y-88000000D01*
X94340000Y-88000000D02*
X95030000Y-88000000D01*
%TO.C,LED1*%
X108241999Y-64560001D02*
X102408665Y-64560001D01*
X102408665Y-64560001D02*
X102408665Y-64920001D01*
X102408665Y-64920001D02*
X96575333Y-64920001D01*
X96575333Y-64920001D02*
X96575333Y-64560001D01*
X96575333Y-64560001D02*
X90741999Y-64560001D01*
X108241999Y-64560001D02*
X109491999Y-64560001D01*
X109491999Y-64560001D02*
X109491999Y-84560001D01*
X109491999Y-84560001D02*
X89491999Y-84560001D01*
X89491999Y-84560001D02*
X89491999Y-64560001D01*
X89491999Y-64560001D02*
X90741999Y-64560001D01*
%TO.C,LED2*%
X110700001Y-64560001D02*
X111950001Y-64560001D01*
X110700001Y-84560001D02*
X110700001Y-64560001D01*
X130700001Y-84560001D02*
X110700001Y-84560001D01*
X130700001Y-64560001D02*
X130700001Y-84560001D01*
X129450001Y-64560001D02*
X130700001Y-64560001D01*
X117783335Y-64560001D02*
X111950001Y-64560001D01*
X117783335Y-64920001D02*
X117783335Y-64560001D01*
X123616667Y-64920001D02*
X117783335Y-64920001D01*
X123616667Y-64560001D02*
X123616667Y-64920001D01*
X129450001Y-64560001D02*
X123616667Y-64560001D01*
%TO.C,U4*%
D10*
X118952380Y-52761904D02*
X119761904Y-52761904D01*
X119857142Y-52714285D01*
X119904761Y-52666666D01*
X119952380Y-52571428D01*
X119952380Y-52380952D01*
X119904761Y-52285714D01*
X119857142Y-52238095D01*
X119761904Y-52190476D01*
X118952380Y-52190476D01*
X119285714Y-51285714D02*
X119952380Y-51285714D01*
X118904761Y-51523809D02*
X119619047Y-51761904D01*
X119619047Y-51142857D01*
%TO.C,D3*%
X162511904Y-66952380D02*
X162511904Y-65952380D01*
X162750000Y-65952380D01*
X162892857Y-66000000D01*
X162988095Y-66095238D01*
X163035714Y-66190476D01*
X163083333Y-66380952D01*
X163083333Y-66523809D01*
X163035714Y-66714285D01*
X162988095Y-66809523D01*
X162892857Y-66904761D01*
X162750000Y-66952380D01*
X162511904Y-66952380D01*
X163416666Y-65952380D02*
X164035714Y-65952380D01*
X163702380Y-66333333D01*
X163845238Y-66333333D01*
X163940476Y-66380952D01*
X163988095Y-66428571D01*
X164035714Y-66523809D01*
X164035714Y-66761904D01*
X163988095Y-66857142D01*
X163940476Y-66904761D01*
X163845238Y-66952380D01*
X163559523Y-66952380D01*
X163464285Y-66904761D01*
X163416666Y-66857142D01*
%TO.C,LED3*%
X135880952Y-64012381D02*
X135404761Y-64012381D01*
X135404761Y-63012381D01*
X136214285Y-63488572D02*
X136547619Y-63488572D01*
X136690476Y-64012381D02*
X136214285Y-64012381D01*
X136214285Y-63012381D01*
X136690476Y-63012381D01*
X137119047Y-64012381D02*
X137119047Y-63012381D01*
X137357142Y-63012381D01*
X137500000Y-63060001D01*
X137595238Y-63155239D01*
X137642857Y-63250477D01*
X137690476Y-63440953D01*
X137690476Y-63583810D01*
X137642857Y-63774286D01*
X137595238Y-63869524D01*
X137500000Y-63964762D01*
X137357142Y-64012381D01*
X137119047Y-64012381D01*
X138023809Y-63012381D02*
X138642857Y-63012381D01*
X138309523Y-63393334D01*
X138452380Y-63393334D01*
X138547619Y-63440953D01*
X138595238Y-63488572D01*
X138642857Y-63583810D01*
X138642857Y-63821905D01*
X138595238Y-63917143D01*
X138547619Y-63964762D01*
X138452380Y-64012381D01*
X138166666Y-64012381D01*
X138071428Y-63964762D01*
X138023809Y-63917143D01*
%TO.C,C1*%
X144833333Y-60857142D02*
X144785714Y-60904761D01*
X144642857Y-60952380D01*
X144547619Y-60952380D01*
X144404761Y-60904761D01*
X144309523Y-60809523D01*
X144261904Y-60714285D01*
X144214285Y-60523809D01*
X144214285Y-60380952D01*
X144261904Y-60190476D01*
X144309523Y-60095238D01*
X144404761Y-60000000D01*
X144547619Y-59952380D01*
X144642857Y-59952380D01*
X144785714Y-60000000D01*
X144833333Y-60047619D01*
X145785714Y-60952380D02*
X145214285Y-60952380D01*
X145500000Y-60952380D02*
X145500000Y-59952380D01*
X145404761Y-60095238D01*
X145309523Y-60190476D01*
X145214285Y-60238095D01*
%TO.C,R7*%
X158333333Y-55052380D02*
X158000000Y-54576190D01*
X157761904Y-55052380D02*
X157761904Y-54052380D01*
X158142857Y-54052380D01*
X158238095Y-54100000D01*
X158285714Y-54147619D01*
X158333333Y-54242857D01*
X158333333Y-54385714D01*
X158285714Y-54480952D01*
X158238095Y-54528571D01*
X158142857Y-54576190D01*
X157761904Y-54576190D01*
X158666666Y-54052380D02*
X159333333Y-54052380D01*
X158904761Y-55052380D01*
%TO.C,R6*%
X101183333Y-56452380D02*
X100850000Y-55976190D01*
X100611904Y-56452380D02*
X100611904Y-55452380D01*
X100992857Y-55452380D01*
X101088095Y-55500000D01*
X101135714Y-55547619D01*
X101183333Y-55642857D01*
X101183333Y-55785714D01*
X101135714Y-55880952D01*
X101088095Y-55928571D01*
X100992857Y-55976190D01*
X100611904Y-55976190D01*
X102040476Y-55452380D02*
X101850000Y-55452380D01*
X101754761Y-55500000D01*
X101707142Y-55547619D01*
X101611904Y-55690476D01*
X101564285Y-55880952D01*
X101564285Y-56261904D01*
X101611904Y-56357142D01*
X101659523Y-56404761D01*
X101754761Y-56452380D01*
X101945238Y-56452380D01*
X102040476Y-56404761D01*
X102088095Y-56357142D01*
X102135714Y-56261904D01*
X102135714Y-56023809D01*
X102088095Y-55928571D01*
X102040476Y-55880952D01*
X101945238Y-55833333D01*
X101754761Y-55833333D01*
X101659523Y-55880952D01*
X101611904Y-55928571D01*
X101564285Y-56023809D01*
%TO.C,R5*%
X105833333Y-53452380D02*
X105500000Y-52976190D01*
X105261904Y-53452380D02*
X105261904Y-52452380D01*
X105642857Y-52452380D01*
X105738095Y-52500000D01*
X105785714Y-52547619D01*
X105833333Y-52642857D01*
X105833333Y-52785714D01*
X105785714Y-52880952D01*
X105738095Y-52928571D01*
X105642857Y-52976190D01*
X105261904Y-52976190D01*
X106738095Y-52452380D02*
X106261904Y-52452380D01*
X106214285Y-52928571D01*
X106261904Y-52880952D01*
X106357142Y-52833333D01*
X106595238Y-52833333D01*
X106690476Y-52880952D01*
X106738095Y-52928571D01*
X106785714Y-53023809D01*
X106785714Y-53261904D01*
X106738095Y-53357142D01*
X106690476Y-53404761D01*
X106595238Y-53452380D01*
X106357142Y-53452380D01*
X106261904Y-53404761D01*
X106214285Y-53357142D01*
%TO.C,D2*%
X104412380Y-49508095D02*
X103412380Y-49508095D01*
X103412380Y-49270000D01*
X103460000Y-49127142D01*
X103555238Y-49031904D01*
X103650476Y-48984285D01*
X103840952Y-48936666D01*
X103983809Y-48936666D01*
X104174285Y-48984285D01*
X104269523Y-49031904D01*
X104364761Y-49127142D01*
X104412380Y-49270000D01*
X104412380Y-49508095D01*
X103507619Y-48555714D02*
X103460000Y-48508095D01*
X103412380Y-48412857D01*
X103412380Y-48174761D01*
X103460000Y-48079523D01*
X103507619Y-48031904D01*
X103602857Y-47984285D01*
X103698095Y-47984285D01*
X103840952Y-48031904D01*
X104412380Y-48603333D01*
X104412380Y-47984285D01*
%TO.C,D1*%
X114412380Y-49508095D02*
X113412380Y-49508095D01*
X113412380Y-49270000D01*
X113460000Y-49127142D01*
X113555238Y-49031904D01*
X113650476Y-48984285D01*
X113840952Y-48936666D01*
X113983809Y-48936666D01*
X114174285Y-48984285D01*
X114269523Y-49031904D01*
X114364761Y-49127142D01*
X114412380Y-49270000D01*
X114412380Y-49508095D01*
X114412380Y-47984285D02*
X114412380Y-48555714D01*
X114412380Y-48270000D02*
X113412380Y-48270000D01*
X113555238Y-48365238D01*
X113650476Y-48460476D01*
X113698095Y-48555714D01*
%TO.C,R4*%
X164483333Y-49952380D02*
X164150000Y-49476190D01*
X163911904Y-49952380D02*
X163911904Y-48952380D01*
X164292857Y-48952380D01*
X164388095Y-49000000D01*
X164435714Y-49047619D01*
X164483333Y-49142857D01*
X164483333Y-49285714D01*
X164435714Y-49380952D01*
X164388095Y-49428571D01*
X164292857Y-49476190D01*
X163911904Y-49476190D01*
X165340476Y-49285714D02*
X165340476Y-49952380D01*
X165102380Y-48904761D02*
X164864285Y-49619047D01*
X165483333Y-49619047D01*
%TO.C,R3*%
X131983333Y-91172380D02*
X131650000Y-90696190D01*
X131411904Y-91172380D02*
X131411904Y-90172380D01*
X131792857Y-90172380D01*
X131888095Y-90220000D01*
X131935714Y-90267619D01*
X131983333Y-90362857D01*
X131983333Y-90505714D01*
X131935714Y-90600952D01*
X131888095Y-90648571D01*
X131792857Y-90696190D01*
X131411904Y-90696190D01*
X132316666Y-90172380D02*
X132935714Y-90172380D01*
X132602380Y-90553333D01*
X132745238Y-90553333D01*
X132840476Y-90600952D01*
X132888095Y-90648571D01*
X132935714Y-90743809D01*
X132935714Y-90981904D01*
X132888095Y-91077142D01*
X132840476Y-91124761D01*
X132745238Y-91172380D01*
X132459523Y-91172380D01*
X132364285Y-91124761D01*
X132316666Y-91077142D01*
%TO.C,R2*%
X115483333Y-91172380D02*
X115150000Y-90696190D01*
X114911904Y-91172380D02*
X114911904Y-90172380D01*
X115292857Y-90172380D01*
X115388095Y-90220000D01*
X115435714Y-90267619D01*
X115483333Y-90362857D01*
X115483333Y-90505714D01*
X115435714Y-90600952D01*
X115388095Y-90648571D01*
X115292857Y-90696190D01*
X114911904Y-90696190D01*
X115864285Y-90267619D02*
X115911904Y-90220000D01*
X116007142Y-90172380D01*
X116245238Y-90172380D01*
X116340476Y-90220000D01*
X116388095Y-90267619D01*
X116435714Y-90362857D01*
X116435714Y-90458095D01*
X116388095Y-90600952D01*
X115816666Y-91172380D01*
X116435714Y-91172380D01*
%TO.C,R1*%
X99483333Y-91172380D02*
X99150000Y-90696190D01*
X98911904Y-91172380D02*
X98911904Y-90172380D01*
X99292857Y-90172380D01*
X99388095Y-90220000D01*
X99435714Y-90267619D01*
X99483333Y-90362857D01*
X99483333Y-90505714D01*
X99435714Y-90600952D01*
X99388095Y-90648571D01*
X99292857Y-90696190D01*
X98911904Y-90696190D01*
X100435714Y-91172380D02*
X99864285Y-91172380D01*
X100150000Y-91172380D02*
X100150000Y-90172380D01*
X100054761Y-90315238D01*
X99959523Y-90410476D01*
X99864285Y-90458095D01*
%TO.C,LED1*%
X93380952Y-63952380D02*
X92904761Y-63952380D01*
X92904761Y-62952380D01*
X93714285Y-63428571D02*
X94047619Y-63428571D01*
X94190476Y-63952380D02*
X93714285Y-63952380D01*
X93714285Y-62952380D01*
X94190476Y-62952380D01*
X94619047Y-63952380D02*
X94619047Y-62952380D01*
X94857142Y-62952380D01*
X95000000Y-63000000D01*
X95095238Y-63095238D01*
X95142857Y-63190476D01*
X95190476Y-63380952D01*
X95190476Y-63523809D01*
X95142857Y-63714285D01*
X95095238Y-63809523D01*
X95000000Y-63904761D01*
X94857142Y-63952380D01*
X94619047Y-63952380D01*
X96142857Y-63952380D02*
X95571428Y-63952380D01*
X95857142Y-63952380D02*
X95857142Y-62952380D01*
X95761904Y-63095238D01*
X95666666Y-63190476D01*
X95571428Y-63238095D01*
%TO.C,LED2*%
X114880952Y-64012381D02*
X114404761Y-64012381D01*
X114404761Y-63012381D01*
X115214285Y-63488572D02*
X115547619Y-63488572D01*
X115690476Y-64012381D02*
X115214285Y-64012381D01*
X115214285Y-63012381D01*
X115690476Y-63012381D01*
X116119047Y-64012381D02*
X116119047Y-63012381D01*
X116357142Y-63012381D01*
X116500000Y-63060001D01*
X116595238Y-63155239D01*
X116642857Y-63250477D01*
X116690476Y-63440953D01*
X116690476Y-63583810D01*
X116642857Y-63774286D01*
X116595238Y-63869524D01*
X116500000Y-63964762D01*
X116357142Y-64012381D01*
X116119047Y-64012381D01*
X117071428Y-63107620D02*
X117119047Y-63060001D01*
X117214285Y-63012381D01*
X117452380Y-63012381D01*
X117547619Y-63060001D01*
X117595238Y-63107620D01*
X117642857Y-63202858D01*
X117642857Y-63298096D01*
X117595238Y-63440953D01*
X117023809Y-64012381D01*
X117642857Y-64012381D01*
%TD*%
M02*
